<?xml version="1.0" encoding="utf-8"?>
<!-- Generator: Adobe Illustrator 19.2.1, SVG Export Plug-In . SVG Version: 6.00 Build 0)  -->
<svg version="1.1" id="Warstwa_1" xmlns="http://www.w3.org/2000/svg" xmlns:xlink="http://www.w3.org/1999/xlink" x="0px" y="0px"
	 viewBox="0 0 992.1 459.2" style="enable-background:new 0 0 992.1 459.2;" xml:space="preserve">
<style type="text/css">
	.st0{fill:#1D1D1E;}
</style>
<g>
	<path class="st0" d="M886.5,217.9c0-1.1,0-1.1,0-1.1L834,130.3c-6.8-12.5-19.4-20.5-33-20.5h-74c-3.4,0-8,1.1-11.4,2.3V84.7
		c0-20.5-17.1-37.6-37.6-37.6H334.4c-20.5,0-37.6,17.1-37.6,37.6v225.4c0,20.5,17.1,37.6,37.6,37.6h22.9c0,1.1,0,1.1,0,2.3
		c0,34.1,28.5,62.6,62.6,62.6s62.6-28.5,62.6-62.6c0-1.1,0-2.3,0-3.4h241.3c0,1.1,0,2.3,0,3.4c0,34.1,28.5,62.6,62.6,62.6
		c34.1,0,62.6-28.5,62.6-62.6c0-1.1,0-1.1,0-2.3h4.6c20.5,0,37.6-17.1,37.6-37.6v-75.1C891.1,229.3,888.8,223.6,886.5,217.9z
		 M419.8,387.5c-20.5,0-36.4-15.9-36.4-36.4c0-20.5,17.1-36.4,36.4-36.4s36.4,15.9,36.4,36.4C456.1,371.7,439.1,387.5,419.8,387.5z
		 M419.8,287.3c-23.9,0-44.4,13.7-54.6,33h-30.7c-6.8,0-11.4-5.7-11.4-11.4V84.7c0-6.8,5.7-11.4,11.4-11.4h343.8
		c6.8,0,11.4,5.7,11.4,11.4v62.6v142.3v30.7H474.4C464.2,301,443.7,287.3,419.8,287.3z M786.3,387.5c-20.5,0-36.4-15.9-36.4-36.4
		c0-20.5,17.1-36.4,36.4-36.4c19.4,0,36.4,15.9,36.4,36.4C822.8,371.6,805.7,387.5,786.3,387.5z M864.9,310.1
		c0,6.8-5.7,11.4-11.4,11.4h-11.4c-10.2-20.5-31.9-34.1-55.8-34.1c-23.9,0-44.4,13.7-54.6,33h-15.9v-30.7V148.5
		c0-6.8,5.7-11.4,11.4-11.4h74.1c4.6,0,8,2.3,10.2,5.7c0,1.1,0,1.1,0,1.1l52.4,86.5c1.1,1.1,1.1,3.4,1.1,4.6v75H864.9z"/>
	<path class="st0" d="M227.4,320.4H114.7c-8,0-13.7,5.7-13.7,13.7s6.8,13.7,13.7,13.7h112.7c6.8,0,13.7-5.7,13.7-13.7
		S234.2,320.4,227.4,320.4z"/>
	<path class="st0" d="M183,289.6h44.4c6.8,0,12.5-5.7,12.5-13.7s-6.8-13.7-13.7-13.7h-43.3c-8,0-13.7,5.7-13.7,13.7
		C169.4,283.9,176.2,289.6,183,289.6z"/>
</g>
</svg>
